<?xml version="1.0" encoding="utf-8"?>
<!-- Generator: Adobe Illustrator 15.0.2, SVG Export Plug-In . SVG Version: 6.00 Build 0)  -->
<!DOCTYPE svg PUBLIC "-//W3C//DTD SVG 1.1//EN" "http://www.w3.org/Graphics/SVG/1.1/DTD/svg11.dtd">
<svg version="1.1" xmlns="http://www.w3.org/2000/svg" xmlns:xlink="http://www.w3.org/1999/xlink" x="0px" y="0px"
	 width="417.069px" height="208.947px" viewBox="0 0 417.069 208.947" enable-background="new 0 0 417.069 208.947"
	 xml:space="preserve">
<g id="Layer_2_xA0_Image_1_" display="none">
	
		<image display="inline" overflow="visible" width="235" height="134" id="Layer_2_xA0_Image" xlink:href="3CC2F09E.png"  transform="matrix(0.24 0 0 0.24 48 3.3604)">
	</image>
</g>
<g id="triangle">
	<polygon fill="#FF0000" points="99.108,30.687 71.775,0 45.292,30.687 	"/>
</g>
<g id="fulcrum">
	<g>
		<path d="M6.107,25.438c0-14.381,7.092-21.474,21.474-21.474h11.032v17.14h-7.092c-3.744,0-5.516,1.773-5.516,5.516v9.062h12.017
			v17.336H26.005v90.82H6.107v-90.82H0V35.682h6.107V25.438z"/>
		<path d="M101.657,143.838H81.956v-7.092c-4.925,4.531-10.638,8.273-18.913,8.273h-0.788c-11.624,0-17.534-6.5-17.534-18.518
			v-90.82H64.62v84.908c0,4.334,2.167,6.305,6.501,6.305c3.743,0,7.092-1.182,10.638-3.348V35.682h19.898V143.838z"/>
		<path d="M113.478,3.964h19.898v139.875h-19.898V3.964z"/>
		<path d="M181.641,59.717c0-4.925-2.364-7.29-7.289-7.29h-2.364c-4.728,0-7.092,2.365-7.092,7.29v60.086
			c0,4.926,2.364,7.289,7.092,7.289h2.561c4.925,0,7.29-2.363,7.29-7.289V97.936h19.503v23.049c0,15.957-8.077,24.035-24.035,24.035
			h-8.274c-15.958,0-24.035-8.078-24.035-24.035v-62.45c0-15.958,8.077-24.035,24.035-24.035h8.274
			c15.761,0,23.838,7.88,23.838,23.838v19.7h-19.504V59.717z"/>
		<path d="M211.981,35.682h19.703v11.624c4.531-8.669,8.865-12.608,16.746-12.608v22.064c-7.289,0.591-12.41,2.561-16.549,6.304
			v80.772h-19.9V35.682z"/>
		<path d="M313.048,143.838h-19.699v-7.092c-4.926,4.531-10.639,8.273-18.914,8.273h-0.787c-11.625,0-17.533-6.5-17.533-18.518
			v-90.82h19.896v84.908c0,4.334,2.168,6.305,6.502,6.305c3.742,0,7.092-1.182,10.639-3.348V35.682h19.896V143.838z"/>
		<path d="M380.819,143.838h-20.094V58.732c0-4.137-1.773-6.107-5.91-6.107c-3.547,0-6.699,1.182-10.441,3.35v87.864h-19.898V35.682
			h19.701v7.092c5.121-4.531,10.836-8.274,18.715-8.274h0.789c7.684,0,12.805,3.152,15.365,9.062
			c5.715-5.319,11.625-9.062,20.096-9.062h0.789c11.031,0,17.139,6.501,17.139,18.322v91.017h-19.898V58.732
			c0-4.137-1.969-6.107-6.105-6.107c-3.547,0-6.699,1.182-10.246,3.35V143.838z"/>
	</g>
	<g>
		<path fill="#777777" d="M5.649,180.174c0-1.336-0.025-2.656-0.075-3.961c-0.05-1.303-0.093-2.623-0.125-3.959h2.707
			c0.066,0.568,0.108,1.104,0.125,1.604c0.016,0.502,0.042,1.221,0.075,2.156h0.101c0.2-0.469,0.468-0.943,0.802-1.43
			c0.333-0.482,0.743-0.926,1.228-1.326c0.484-0.402,1.053-0.729,1.705-0.979c0.651-0.25,1.378-0.377,2.181-0.377
			c1.035,0,1.905,0.143,2.606,0.426c0.702,0.285,1.261,0.645,1.679,1.078c0.417,0.436,0.743,0.887,0.978,1.354
			c0.233,0.469,0.434,0.887,0.602,1.254c0.2-0.301,0.467-0.684,0.802-1.152c0.333-0.469,0.76-0.92,1.279-1.354
			c0.518-0.434,1.127-0.811,1.83-1.129c0.702-0.316,1.52-0.477,2.456-0.477c1.304,0,2.381,0.244,3.233,0.729s1.529,1.127,2.03,1.93
			c0.501,0.801,0.852,1.695,1.053,2.682c0.2,0.984,0.301,1.98,0.301,2.982v17.594h-2.908v-17.242c0-0.436-0.025-0.994-0.075-1.68
			c-0.05-0.686-0.201-1.346-0.452-1.98s-0.66-1.178-1.228-1.629c-0.568-0.451-1.37-0.678-2.406-0.678
			c-0.902,0-1.688,0.193-2.356,0.578c-0.668,0.383-1.211,0.885-1.629,1.504c-0.418,0.619-0.735,1.336-0.952,2.154
			c-0.218,0.82-0.326,1.68-0.326,2.582v16.391H17.98v-17.795c0-1.67-0.343-2.99-1.027-3.959c-0.686-0.971-1.629-1.455-2.833-1.455
			c-0.835,0-1.596,0.193-2.281,0.578c-0.686,0.383-1.27,0.91-1.754,1.578c-0.485,0.668-0.861,1.445-1.128,2.332
			c-0.268,0.885-0.401,1.828-0.401,2.83v15.891H5.649V180.174z"/>
		<path fill="#777777" d="M47.003,198.17c-1.872,0-3.426-0.383-4.662-1.152s-2.214-1.771-2.932-3.008
			c-0.719-1.236-1.228-2.641-1.529-4.211c-0.3-1.57-0.451-3.158-0.451-4.762c0-1.605,0.151-3.191,0.451-4.762
			c0.301-1.57,0.81-2.975,1.529-4.211c0.718-1.236,1.696-2.238,2.932-3.008s2.79-1.154,4.662-1.154c1.871,0,3.425,0.385,4.662,1.154
			c1.235,0.77,2.213,1.771,2.932,3.008c0.718,1.236,1.228,2.641,1.529,4.211s0.451,3.156,0.451,4.762
			c0,1.604-0.15,3.191-0.451,4.762s-0.811,2.975-1.529,4.211c-0.719,1.236-1.697,2.238-2.932,3.008
			C50.428,197.788,48.875,198.17,47.003,198.17z M47.003,195.463c1.069,0,1.971-0.209,2.707-0.627
			c0.734-0.418,1.345-0.959,1.83-1.629c0.484-0.668,0.859-1.402,1.127-2.205c0.268-0.803,0.459-1.588,0.577-2.355
			c0.117-0.77,0.183-1.479,0.201-2.131c0.016-0.652,0.025-1.145,0.025-1.479s-0.009-0.828-0.025-1.48
			c-0.018-0.65-0.084-1.359-0.201-2.129c-0.118-0.768-0.309-1.555-0.577-2.355c-0.268-0.803-0.644-1.537-1.127-2.207
			c-0.485-0.668-1.095-1.211-1.83-1.629c-0.736-0.418-1.638-0.627-2.707-0.627c-1.07,0-1.972,0.209-2.707,0.627
			c-0.736,0.418-1.346,0.961-1.83,1.629c-0.485,0.67-0.861,1.404-1.128,2.207c-0.268,0.801-0.46,1.588-0.576,2.355
			c-0.118,0.77-0.184,1.479-0.201,2.129c-0.017,0.652-0.025,1.146-0.025,1.48s0.008,0.826,0.025,1.479
			c0.017,0.652,0.083,1.361,0.201,2.131c0.116,0.768,0.308,1.553,0.576,2.355c0.267,0.803,0.643,1.537,1.128,2.205
			c0.484,0.67,1.094,1.211,1.83,1.629C45.031,195.254,45.933,195.463,47.003,195.463z"/>
		<path fill="#777777" d="M60.587,160.225h2.907v15.338h0.101c0.768-1.17,1.654-2.072,2.656-2.707
			c1.003-0.635,2.272-0.953,3.81-0.953c1.604,0,2.949,0.41,4.035,1.229c1.085,0.82,1.955,1.84,2.607,3.059
			c0.651,1.221,1.119,2.539,1.403,3.959c0.284,1.422,0.426,2.732,0.426,3.936c0,0.602-0.018,1.361-0.05,2.281
			c-0.034,0.92-0.143,1.904-0.326,2.957c-0.184,1.053-0.46,2.105-0.827,3.158c-0.368,1.053-0.87,1.996-1.504,2.832
			c-0.635,0.836-1.438,1.521-2.406,2.055c-0.97,0.535-2.139,0.803-3.509,0.803c-1.604,0-2.899-0.344-3.885-1.027
			c-0.986-0.686-1.93-1.629-2.832-2.832h-0.1v3.508h-2.707c0.066-1.102,0.117-2.287,0.15-3.559c0.033-1.27,0.05-2.908,0.05-4.912
			V160.225z M75.424,185.038c0-1.471-0.1-2.84-0.3-4.111c-0.201-1.27-0.536-2.373-1.003-3.309c-0.468-0.936-1.069-1.67-1.804-2.205
			c-0.736-0.535-1.655-0.803-2.757-0.803c-1.571,0-2.782,0.402-3.634,1.203c-0.852,0.803-1.471,1.764-1.854,2.883
			c-0.385,1.119-0.61,2.297-0.677,3.535c-0.067,1.236-0.1,2.271-0.1,3.107c0,1.303,0.1,2.564,0.301,3.785
			c0.2,1.219,0.534,2.297,1.002,3.232c0.467,0.936,1.111,1.688,1.93,2.256s1.846,0.852,3.083,0.852c0.969,0,1.787-0.209,2.456-0.627
			c0.668-0.418,1.22-0.951,1.654-1.604c0.434-0.652,0.76-1.379,0.978-2.18c0.217-0.803,0.384-1.596,0.501-2.383
			c0.117-0.783,0.183-1.494,0.201-2.129C75.416,185.907,75.424,185.405,75.424,185.038z"/>
		<path fill="#777777" d="M82.692,162.079h3.509v4.512h-3.509V162.079z M82.994,172.254h2.907v25.564h-2.907V172.254z"/>
		<path fill="#777777" d="M91.966,160.225h2.907v37.594h-2.907V160.225z"/>
		<path fill="#777777" d="M102.442,185.989c0,2.373,0.326,4.203,0.978,5.49c0.651,1.287,1.386,2.223,2.206,2.807
			c0.818,0.584,1.621,0.928,2.406,1.027c0.785,0.1,1.328,0.15,1.629,0.15c0.835,0,1.779-0.184,2.832-0.551
			c1.053-0.367,1.947-0.885,2.682-1.555l0.151,3.359c-0.602,0.334-1.362,0.66-2.281,0.977c-0.92,0.318-2.148,0.477-3.685,0.477
			c-1.671,0-3.083-0.268-4.235-0.803c-1.153-0.533-2.098-1.211-2.833-2.029c-0.735-0.818-1.303-1.736-1.704-2.758
			c-0.401-1.018-0.694-2.021-0.877-3.006c-0.184-0.986-0.293-1.881-0.326-2.684c-0.034-0.801-0.05-1.42-0.05-1.854
			c0-2.406,0.267-4.445,0.802-6.117c0.534-1.67,1.236-3.023,2.105-4.059s1.847-1.787,2.933-2.256
			c1.085-0.469,2.164-0.703,3.233-0.703c1.837,0,3.299,0.445,4.386,1.33c1.085,0.885,1.912,2.014,2.481,3.383
			c0.567,1.371,0.927,2.891,1.078,4.561c0.15,1.672,0.225,3.275,0.225,4.812H102.442z M113.47,183.284
			c0-1.705-0.159-3.109-0.476-4.211c-0.318-1.104-0.727-1.988-1.228-2.658c-0.501-0.668-1.062-1.135-1.679-1.402
			c-0.619-0.268-1.229-0.402-1.83-0.402c-1.003,0-1.863,0.301-2.582,0.902c-0.719,0.602-1.321,1.338-1.805,2.205
			c-0.485,0.871-0.844,1.807-1.078,2.809c-0.234,1.002-0.351,1.922-0.351,2.758H113.47z"/>
		<path fill="#777777" d="M131.816,160.225h2.907v37.594h-2.907V160.225z"/>
		<path fill="#777777" d="M148.759,198.17c-1.872,0-3.426-0.383-4.662-1.152s-2.214-1.771-2.932-3.008
			c-0.719-1.236-1.228-2.641-1.529-4.211c-0.3-1.57-0.451-3.158-0.451-4.762c0-1.605,0.151-3.191,0.451-4.762
			c0.301-1.57,0.81-2.975,1.529-4.211c0.718-1.236,1.696-2.238,2.932-3.008s2.79-1.154,4.662-1.154c1.871,0,3.425,0.385,4.662,1.154
			c1.235,0.77,2.213,1.771,2.932,3.008c0.718,1.236,1.228,2.641,1.529,4.211s0.451,3.156,0.451,4.762
			c0,1.604-0.15,3.191-0.451,4.762s-0.811,2.975-1.529,4.211c-0.719,1.236-1.697,2.238-2.932,3.008
			C152.184,197.788,150.63,198.17,148.759,198.17z M148.759,195.463c1.069,0,1.971-0.209,2.707-0.627
			c0.734-0.418,1.345-0.959,1.83-1.629c0.484-0.668,0.859-1.402,1.127-2.205c0.268-0.803,0.459-1.588,0.577-2.355
			c0.117-0.77,0.183-1.479,0.201-2.131c0.016-0.652,0.025-1.145,0.025-1.479s-0.009-0.828-0.025-1.48
			c-0.018-0.65-0.084-1.359-0.201-2.129c-0.118-0.768-0.309-1.555-0.577-2.355c-0.268-0.803-0.644-1.537-1.127-2.207
			c-0.485-0.668-1.095-1.211-1.83-1.629c-0.736-0.418-1.638-0.627-2.707-0.627c-1.07,0-1.972,0.209-2.707,0.627
			c-0.736,0.418-1.346,0.961-1.83,1.629c-0.485,0.67-0.861,1.404-1.128,2.207c-0.268,0.801-0.46,1.588-0.576,2.355
			c-0.118,0.77-0.184,1.479-0.201,2.129c-0.017,0.652-0.025,1.146-0.025,1.48s0.008,0.826,0.025,1.479
			c0.017,0.652,0.083,1.361,0.201,2.131c0.116,0.768,0.308,1.553,0.576,2.355c0.267,0.803,0.643,1.537,1.128,2.205
			c0.484,0.67,1.094,1.211,1.83,1.629C146.787,195.254,147.688,195.463,148.759,195.463z"/>
		<path fill="#777777" d="M176.378,176.114c-0.569-0.467-1.287-0.801-2.156-1.002c-0.87-0.201-1.688-0.301-2.456-0.301
			c-0.97,0-1.905,0.176-2.807,0.527c-0.903,0.35-1.697,0.91-2.381,1.678c-0.686,0.77-1.237,1.748-1.654,2.934
			c-0.418,1.186-0.626,2.631-0.626,4.336c0,2.34,0.283,4.229,0.852,5.664c0.568,1.438,1.261,2.549,2.081,3.334
			c0.818,0.785,1.679,1.311,2.582,1.578c0.902,0.268,1.704,0.4,2.406,0.4c0.301,0,0.652-0.023,1.053-0.074s0.81-0.125,1.228-0.225
			c0.417-0.102,0.81-0.234,1.178-0.402c0.367-0.166,0.651-0.385,0.852-0.652l0.25,3.309c-0.635,0.27-1.396,0.494-2.281,0.678
			c-0.886,0.182-1.779,0.275-2.682,0.275c-1.371,0-2.69-0.268-3.96-0.803c-1.271-0.533-2.398-1.336-3.384-2.404
			c-0.986-1.07-1.779-2.424-2.381-4.062c-0.602-1.635-0.902-3.559-0.902-5.764c0-1.938,0.217-3.727,0.651-5.363
			c0.434-1.637,1.086-3.033,1.955-4.186c0.869-1.152,1.971-2.057,3.309-2.707c1.336-0.652,2.89-0.979,4.662-0.979
			c1.036,0,1.938,0.084,2.707,0.252c0.769,0.168,1.454,0.385,2.056,0.65L176.378,176.114z"/>
		<path fill="#777777" d="M195.376,192.104c0,0.971,0.033,1.924,0.1,2.859c0.066,0.936,0.133,1.887,0.2,2.855h-2.606l-0.201-3.658
			h-0.1c-0.869,1.402-1.863,2.424-2.982,3.057c-1.12,0.635-2.515,0.953-4.186,0.953c-1.002,0-1.93-0.193-2.782-0.576
			c-0.853-0.385-1.604-0.91-2.256-1.58c-0.651-0.668-1.161-1.453-1.528-2.355c-0.368-0.902-0.552-1.871-0.552-2.906
			c0-1.371,0.217-2.523,0.652-3.459c0.434-0.936,1.01-1.713,1.729-2.332c0.718-0.617,1.52-1.094,2.406-1.428
			c0.885-0.334,1.787-0.586,2.707-0.752c0.919-0.166,1.805-0.268,2.657-0.301s1.579-0.051,2.18-0.051h1.855
			c0-0.803-0.025-1.662-0.075-2.58c-0.05-0.92-0.243-1.764-0.577-2.533c-0.334-0.768-0.86-1.41-1.579-1.93
			c-0.719-0.518-1.747-0.777-3.082-0.777c-0.87,0-1.672,0.121-2.407,0.361c-0.735,0.242-1.387,0.514-1.955,0.82
			c-0.568,0.305-1.036,0.594-1.403,0.867c-0.368,0.271-0.585,0.441-0.652,0.51l-0.451-3.01c1.203-0.668,2.322-1.211,3.358-1.629
			c1.036-0.416,2.256-0.627,3.659-0.627c1.972,0,3.492,0.352,4.562,1.055c1.069,0.701,1.846,1.527,2.331,2.48
			c0.484,0.953,0.768,1.896,0.852,2.832c0.083,0.936,0.125,1.639,0.125,2.105V192.104z M192.669,184.938
			c-1.504,0-2.924,0.033-4.261,0.1c-1.337,0.066-2.515,0.275-3.534,0.627c-1.02,0.35-1.822,0.926-2.406,1.729
			c-0.585,0.801-0.877,1.922-0.877,3.359c0,0.533,0.1,1.086,0.301,1.652c0.201,0.568,0.501,1.078,0.902,1.529
			c0.401,0.451,0.894,0.82,1.479,1.104c0.584,0.285,1.261,0.426,2.03,0.426c0.333,0,0.852-0.066,1.554-0.201
			c0.702-0.133,1.412-0.451,2.131-0.951c0.718-0.502,1.344-1.254,1.88-2.256c0.534-1.002,0.802-2.373,0.802-4.111V184.938z"/>
		<path fill="#777777" d="M205.05,166.239v6.016h5.211v2.707h-5.211v16.643c0,0.5,0.032,0.986,0.1,1.453
			c0.066,0.469,0.2,0.877,0.401,1.229s0.484,0.635,0.852,0.852c0.367,0.219,0.853,0.326,1.454,0.326
			c0.668,0,1.168-0.059,1.503-0.176c0.333-0.117,0.634-0.242,0.901-0.375v2.906c-0.368,0.135-0.852,0.227-1.453,0.277
			c-0.601,0.049-1.237,0.074-1.905,0.074c-0.936,0-1.712-0.168-2.331-0.5c-0.619-0.334-1.103-0.77-1.454-1.305
			c-0.351-0.533-0.601-1.152-0.751-1.854c-0.15-0.703-0.226-1.404-0.226-2.107v-17.443h-3.81v-2.707h3.81v-5.113L205.05,166.239z"/>
		<path fill="#777777" d="M213.47,162.079h3.511v4.512h-3.511V162.079z M213.771,172.254h2.908v25.564h-2.908V172.254z"/>
		<path fill="#777777" d="M230.716,198.17c-1.871,0-3.424-0.383-4.66-1.152c-1.238-0.77-2.215-1.771-2.934-3.008
			s-1.227-2.641-1.527-4.211s-0.451-3.158-0.451-4.762c0-1.605,0.15-3.191,0.451-4.762s0.809-2.975,1.527-4.211
			s1.695-2.238,2.934-3.008c1.236-0.77,2.789-1.154,4.66-1.154s3.426,0.385,4.662,1.154s2.215,1.771,2.934,3.008
			s1.229,2.641,1.529,4.211s0.451,3.156,0.451,4.762c0,1.604-0.15,3.191-0.451,4.762s-0.811,2.975-1.529,4.211
			s-1.697,2.238-2.934,3.008S232.587,198.17,230.716,198.17z M230.716,195.463c1.07,0,1.973-0.209,2.707-0.627
			c0.736-0.418,1.346-0.959,1.83-1.629c0.484-0.668,0.861-1.402,1.129-2.205s0.459-1.588,0.576-2.355
			c0.117-0.77,0.184-1.479,0.201-2.131c0.016-0.652,0.023-1.145,0.023-1.479s-0.008-0.828-0.023-1.48
			c-0.018-0.65-0.084-1.359-0.201-2.129c-0.117-0.768-0.309-1.555-0.576-2.355c-0.268-0.803-0.645-1.537-1.129-2.207
			c-0.484-0.668-1.094-1.211-1.83-1.629c-0.734-0.418-1.637-0.627-2.707-0.627c-1.068,0-1.971,0.209-2.705,0.627
			c-0.736,0.418-1.346,0.961-1.83,1.629c-0.484,0.67-0.861,1.404-1.127,2.207c-0.27,0.801-0.461,1.588-0.578,2.355
			c-0.117,0.77-0.184,1.479-0.199,2.129c-0.018,0.652-0.025,1.146-0.025,1.48s0.008,0.826,0.025,1.479
			c0.016,0.652,0.082,1.361,0.199,2.131c0.117,0.768,0.309,1.553,0.578,2.355c0.266,0.803,0.643,1.537,1.127,2.205
			c0.484,0.67,1.094,1.211,1.83,1.629C228.745,195.254,229.647,195.463,230.716,195.463z"/>
		<path fill="#777777" d="M244.501,180.174c0-1.336-0.025-2.656-0.076-3.961c-0.049-1.303-0.092-2.623-0.123-3.959h2.705
			c0.066,0.568,0.109,1.104,0.125,1.604c0.018,0.502,0.043,1.221,0.076,2.156h0.102c0.131-0.268,0.35-0.635,0.65-1.104
			c0.301-0.467,0.709-0.926,1.229-1.379c0.518-0.451,1.152-0.834,1.904-1.152c0.752-0.316,1.662-0.477,2.732-0.477
			c1.17,0,2.162,0.176,2.982,0.527c0.818,0.352,1.486,0.803,2.004,1.354c0.52,0.551,0.92,1.17,1.205,1.855
			c0.283,0.684,0.492,1.352,0.625,2.004c0.135,0.652,0.209,1.254,0.227,1.805c0.016,0.551,0.025,0.961,0.025,1.229v17.143h-2.908
			v-17.242c0-0.436-0.025-0.994-0.076-1.68c-0.049-0.686-0.225-1.346-0.525-1.98s-0.77-1.178-1.404-1.629s-1.553-0.678-2.756-0.678
			c-0.902,0-1.713,0.193-2.432,0.578c-0.719,0.383-1.328,0.91-1.83,1.578c-0.5,0.668-0.885,1.445-1.152,2.332
			c-0.268,0.885-0.4,1.828-0.4,2.83v15.891h-2.908V180.174z"/>
		<path fill="#777777" d="M277.485,160.225h2.906v37.594h-2.906V160.225z"/>
		<path fill="#777777" d="M287.962,185.989c0,2.373,0.326,4.203,0.977,5.49c0.652,1.287,1.387,2.223,2.205,2.807
			s1.621,0.928,2.406,1.027s1.33,0.15,1.629,0.15c0.836,0,1.779-0.184,2.834-0.551c1.051-0.367,1.945-0.885,2.682-1.555l0.148,3.359
			c-0.6,0.334-1.361,0.66-2.279,0.977c-0.92,0.318-2.148,0.477-3.684,0.477c-1.672,0-3.084-0.268-4.236-0.803
			c-1.152-0.533-2.098-1.211-2.834-2.029c-0.734-0.818-1.303-1.736-1.703-2.758c-0.4-1.018-0.693-2.021-0.877-3.006
			c-0.184-0.986-0.293-1.881-0.326-2.684c-0.033-0.801-0.049-1.42-0.049-1.854c0-2.406,0.266-4.445,0.801-6.117
			c0.535-1.67,1.236-3.023,2.105-4.059s1.846-1.787,2.934-2.256c1.084-0.469,2.162-0.703,3.232-0.703
			c1.836,0,3.299,0.445,4.385,1.33s1.914,2.014,2.482,3.383c0.568,1.371,0.928,2.891,1.078,4.561
			c0.15,1.672,0.225,3.275,0.225,4.812H287.962z M298.989,183.284c0-1.705-0.16-3.109-0.477-4.211
			c-0.318-1.104-0.727-1.988-1.229-2.658c-0.5-0.668-1.061-1.135-1.678-1.402c-0.619-0.268-1.229-0.402-1.83-0.402
			c-1.004,0-1.863,0.301-2.582,0.902s-1.32,1.338-1.805,2.205c-0.484,0.871-0.844,1.807-1.078,2.809s-0.35,1.922-0.35,2.758H298.989
			z"/>
		<path fill="#777777" d="M303.45,172.254h3.107l6.064,22.258h0.102l6.266-22.258h2.906l-7.467,25.564h-3.51L303.45,172.254z"/>
		<path fill="#777777" d="M326.358,185.989c0,2.373,0.326,4.203,0.977,5.49c0.652,1.287,1.387,2.223,2.207,2.807
			c0.816,0.584,1.619,0.928,2.404,1.027s1.33,0.15,1.629,0.15c0.836,0,1.781-0.184,2.834-0.551c1.051-0.367,1.945-0.885,2.682-1.555
			l0.15,3.359c-0.602,0.334-1.363,0.66-2.281,0.977c-0.92,0.318-2.148,0.477-3.684,0.477c-1.672,0-3.084-0.268-4.236-0.803
			c-1.152-0.533-2.098-1.211-2.834-2.029c-0.734-0.818-1.303-1.736-1.703-2.758c-0.4-1.018-0.693-2.021-0.877-3.006
			c-0.184-0.986-0.293-1.881-0.326-2.684c-0.033-0.801-0.049-1.42-0.049-1.854c0-2.406,0.266-4.445,0.801-6.117
			c0.535-1.67,1.236-3.023,2.105-4.059s1.846-1.787,2.934-2.256c1.084-0.469,2.162-0.703,3.232-0.703
			c1.836,0,3.299,0.445,4.385,1.33s1.914,2.014,2.482,3.383c0.568,1.371,0.928,2.891,1.078,4.561
			c0.15,1.672,0.225,3.275,0.225,4.812H326.358z M337.386,183.284c0-1.705-0.158-3.109-0.477-4.211
			c-0.318-1.104-0.727-1.988-1.227-2.658c-0.502-0.668-1.062-1.135-1.68-1.402c-0.619-0.268-1.229-0.402-1.83-0.402
			c-1.004,0-1.863,0.301-2.582,0.902s-1.32,1.338-1.805,2.205c-0.484,0.871-0.844,1.807-1.078,2.809s-0.35,1.922-0.35,2.758H337.386
			z"/>
		<path fill="#777777" d="M344.704,180.174c0-1.336-0.025-2.656-0.074-3.961c-0.051-1.303-0.094-2.623-0.125-3.959h2.707
			c0.031,0.77,0.064,1.504,0.1,2.207c0.033,0.701,0.066,1.32,0.1,1.854h0.102c0.467-0.902,0.951-1.646,1.453-2.23
			s1.035-1.035,1.604-1.354s1.16-0.535,1.779-0.652s1.279-0.176,1.98-0.176v3.109c-2.307,0-4.002,0.525-5.088,1.578
			s-1.629,2.766-1.629,5.139v16.09h-2.908V180.174z"/>
		<path fill="#777777" d="M372.024,192.104c0,0.971,0.033,1.924,0.1,2.859s0.133,1.887,0.201,2.855h-2.607l-0.199-3.658h-0.102
			c-0.869,1.402-1.863,2.424-2.982,3.057c-1.119,0.635-2.516,0.953-4.186,0.953c-1.002,0-1.93-0.193-2.781-0.576
			c-0.854-0.385-1.605-0.91-2.256-1.58c-0.652-0.668-1.162-1.453-1.529-2.355c-0.369-0.902-0.551-1.871-0.551-2.906
			c0-1.371,0.217-2.523,0.65-3.459c0.436-0.936,1.012-1.713,1.73-2.332c0.719-0.617,1.52-1.094,2.406-1.428
			c0.885-0.334,1.787-0.586,2.707-0.752c0.918-0.166,1.805-0.268,2.656-0.301s1.58-0.051,2.18-0.051h1.855
			c0-0.803-0.025-1.662-0.076-2.58c-0.049-0.92-0.242-1.764-0.576-2.533c-0.334-0.768-0.861-1.41-1.578-1.93
			c-0.719-0.518-1.748-0.777-3.084-0.777c-0.869,0-1.67,0.121-2.406,0.361c-0.734,0.242-1.385,0.514-1.955,0.82
			c-0.568,0.305-1.035,0.594-1.402,0.867c-0.367,0.271-0.586,0.441-0.652,0.51l-0.451-3.01c1.203-0.668,2.322-1.211,3.359-1.629
			c1.035-0.416,2.256-0.627,3.66-0.627c1.971,0,3.49,0.352,4.561,1.055c1.068,0.701,1.846,1.527,2.33,2.48s0.77,1.896,0.854,2.832
			c0.082,0.936,0.125,1.639,0.125,2.105V192.104z M369.317,184.938c-1.504,0-2.924,0.033-4.262,0.1
			c-1.336,0.066-2.514,0.275-3.533,0.627c-1.02,0.35-1.822,0.926-2.406,1.729c-0.586,0.801-0.877,1.922-0.877,3.359
			c0,0.533,0.1,1.086,0.301,1.652c0.201,0.568,0.502,1.078,0.902,1.529s0.893,0.82,1.479,1.104c0.584,0.285,1.262,0.426,2.031,0.426
			c0.332,0,0.852-0.066,1.553-0.201c0.701-0.133,1.412-0.451,2.131-0.951c0.717-0.502,1.346-1.254,1.879-2.256
			c0.535-1.002,0.803-2.373,0.803-4.111V184.938z"/>
		<path fill="#777777" d="M376.134,185.989c0-0.602,0.016-1.359,0.049-2.279c0.035-0.92,0.143-1.904,0.326-2.959
			c0.184-1.053,0.461-2.104,0.828-3.156c0.367-1.055,0.869-1.998,1.504-2.834c0.633-0.834,1.428-1.52,2.381-2.055
			c0.953-0.533,2.131-0.803,3.533-0.803c1.605,0,2.934,0.352,3.986,1.055c1.053,0.701,1.961,1.721,2.73,3.057h0.102v-3.76h2.705
			c-0.066,1.104-0.117,2.289-0.148,3.559c-0.033,1.271-0.051,2.908-0.051,4.914v16.49c0,3.609-0.744,6.467-2.23,8.572
			c-1.488,2.105-3.936,3.158-7.344,3.158c-0.701,0-1.32-0.025-1.855-0.074c-0.533-0.051-1.068-0.135-1.604-0.252
			s-1.104-0.258-1.705-0.426s-1.303-0.385-2.105-0.652l0.201-3.258c1.236,0.703,2.506,1.203,3.811,1.504
			c1.303,0.301,2.373,0.451,3.209,0.451c1.568,0,2.807-0.318,3.707-0.953c0.904-0.635,1.58-1.395,2.031-2.279
			c0.451-0.887,0.727-1.805,0.828-2.758c0.1-0.953,0.148-1.764,0.148-2.432v-3.508h-0.1c-0.77,1.27-1.654,2.23-2.656,2.883
			c-1.004,0.65-2.273,0.977-3.811,0.977c-1.604,0-2.949-0.408-4.035-1.229c-1.086-0.818-1.955-1.836-2.605-3.057
			c-0.652-1.221-1.121-2.541-1.404-3.961S376.134,187.194,376.134,185.989z M379.241,185.038c0,1.471,0.1,2.84,0.301,4.109
			c0.201,1.271,0.535,2.373,1.004,3.309c0.467,0.936,1.068,1.672,1.803,2.205c0.736,0.535,1.654,0.803,2.758,0.803
			c1.203,0,2.205-0.258,3.008-0.777c0.801-0.518,1.445-1.244,1.93-2.18s0.826-2.062,1.027-3.383s0.301-2.783,0.301-4.387
			c0-1.305-0.1-2.564-0.301-3.785s-0.535-2.297-1.002-3.234c-0.469-0.934-1.111-1.686-1.932-2.254
			c-0.818-0.568-1.846-0.854-3.082-0.854c-0.969,0-1.787,0.209-2.455,0.627c-0.67,0.418-1.221,0.953-1.654,1.605
			c-0.436,0.65-0.762,1.377-0.979,2.18s-0.385,1.596-0.5,2.381c-0.117,0.785-0.186,1.504-0.201,2.154
			C379.249,184.209,379.241,184.704,379.241,185.038z"/>
		<path fill="#777777" d="M401.196,185.989c0,2.373,0.326,4.203,0.979,5.49c0.65,1.287,1.387,2.223,2.205,2.807
			s1.621,0.928,2.406,1.027s1.328,0.15,1.629,0.15c0.834,0,1.779-0.184,2.832-0.551s1.947-0.885,2.682-1.555l0.15,3.359
			c-0.6,0.334-1.361,0.66-2.281,0.977c-0.918,0.318-2.146,0.477-3.684,0.477c-1.672,0-3.082-0.268-4.236-0.803
			c-1.152-0.533-2.096-1.211-2.832-2.029c-0.734-0.818-1.303-1.736-1.703-2.758c-0.402-1.018-0.693-2.021-0.877-3.006
			c-0.184-0.986-0.293-1.881-0.326-2.684c-0.035-0.801-0.051-1.42-0.051-1.854c0-2.406,0.268-4.445,0.803-6.117
			c0.533-1.67,1.236-3.023,2.105-4.059c0.867-1.035,1.846-1.787,2.932-2.256s2.164-0.703,3.232-0.703
			c1.838,0,3.301,0.445,4.387,1.33s1.912,2.014,2.48,3.383c0.568,1.371,0.93,2.891,1.078,4.561c0.15,1.672,0.227,3.275,0.227,4.812
			H401.196z M412.226,183.284c0-1.705-0.16-3.109-0.477-4.211c-0.318-1.104-0.727-1.988-1.229-2.658
			c-0.5-0.668-1.061-1.135-1.68-1.402c-0.617-0.268-1.227-0.402-1.83-0.402c-1.002,0-1.863,0.301-2.58,0.902
			c-0.719,0.602-1.322,1.338-1.805,2.205c-0.484,0.871-0.844,1.807-1.078,2.809s-0.352,1.922-0.352,2.758H412.226z"/>
	</g>
</g>
</svg>
